# xmcd
#
# Track frame offsets:
#	182
#	26335
#	143500
#
# Disc length: 2436 seconds
#
# Revision: 1
# Processed by: cddbd v1.5.1PL0 Copyright (c) Steve Scherf et al.
# Submitted via: CDex 1.50Beta5
#
DISCID=19098203
DTITLE=Various Artist - 宇宙英雄物語・満漢全席 至高の円盤
DYEAR=1900
DGENRE=Anime
TTITLE0=宮内タカユキ/SNOW MAN
TTITLE1=ドラマ/DRAMA「冬の祭典」
TTITLE2=宮内タカユキ/宇宙英雄伝説
EXTD=
EXTT0=
EXTT1=
EXTT2=
PLAYORDER=
